<svg xmlns="http://www.w3.org/2000/svg" viewBox="0 0 720 720" role="img" aria-labelledby="title desc">
  <title id="title">Botiquin y Bazar Josue Farma</title>
  <desc id="desc">Logo con corazon, cruz medica y estetoscopio para Botiquin y Bazar Josue Farma.</desc>
  <defs>
    <filter id="softShadow" x="-20%" y="-20%" width="140%" height="140%">
      <feDropShadow dx="0" dy="12" stdDeviation="10" flood-color="#1c6d70" flood-opacity=".22"/>
    </filter>
    <linearGradient id="bg" x1="0" x2="1" y1="0" y2="1">
      <stop offset="0" stop-color="#68cdbb"/>
      <stop offset=".55" stop-color="#bfe9d6"/>
      <stop offset="1" stop-color="#55bba8"/>
    </linearGradient>
    <linearGradient id="cross" x1="0" x2="0" y1="0" y2="1">
      <stop offset="0" stop-color="#ff3d25"/>
      <stop offset="1" stop-color="#a91c12"/>
    </linearGradient>
  </defs>

  <rect width="720" height="720" rx="0" fill="url(#bg)"/>
  <circle cx="360" cy="300" r="195" fill="#d9f4e9" opacity=".45"/>

  <g filter="url(#softShadow)">
    <path
      d="M300 382 203 286c-51-51-52-133-3-183 45-45 119-43 164 6 45-49 119-51 164-6 49 50 48 132-3 183l-97 96-64 63-64-63Z"
      fill="#1f55a0"
    />
    <path
      d="M300 346 231 278c-33-34-35-87-3-120 30-30 79-29 110 6l26 30 26-30c31-35 80-36 110-6 32 33 30 86-3 120l-69 68-64 63-64-63Z"
      fill="#fff"
    />
    <path
      d="M334 226c0-14 12-26 26-26h8c14 0 26 12 26 26v26h26c14 0 26 12 26 26v8c0 14-12 26-26 26h-26v26c0 14-12 26-26 26h-8c-14 0-26-12-26-26v-26h-26c-14 0-26-12-26-26v-8c0-14 12-26 26-26h26v-26Z"
      fill="url(#cross)"
    />
  </g>

  <g fill="none" stroke="#1f55a0" stroke-width="18" stroke-linecap="round">
    <path d="M420 396c-10 72-107 82-124 13"/>
    <path d="M421 393c46 4 80-22 85-67"/>
    <path d="M541 324c-7 48 21 79 63 72"/>
    <path d="M614 393c41-8 60-34 63-75"/>
  </g>
  <circle cx="512" cy="316" r="15" fill="#72d6c4" stroke="#1f55a0" stroke-width="10"/>
  <circle cx="608" cy="397" r="30" fill="#1f55a0"/>
  <circle cx="679" cy="315" r="15" fill="#72d6c4" stroke="#1f55a0" stroke-width="10"/>

  <g text-anchor="middle" font-family="Arial Black, Impact, Arial, sans-serif">
    <text x="360" y="530" font-size="50" fill="#1d1d1b" stroke="#fff" stroke-width="10" paint-order="stroke">
      BOTIQUIN &amp; BAZAR
    </text>
    <text x="360" y="620" font-size="76" fill="#111" stroke="#fff" stroke-width="12" paint-order="stroke">
      JOSUE FARMA
    </text>
  </g>
</svg>
